<svg width="147" height="34" viewBox="0 0 147 34" fill="none" xmlns="http://www.w3.org/2000/svg">
<g clip-path="url(#clip0_2_9)">
<path d="M23.2889 18.1047C23.2817 17.5809 23.251 17.058 23.1969 16.5382C23.0636 15.0249 22.7212 13.5488 22.1839 12.1702L21.9747 11.6883V11.6079H21.8575H21.4891C20.4658 11.7199 19.4571 11.976 18.4838 12.3711L18.1825 12.5016V12.2004C17.9908 10.7176 17.6594 9.26565 17.1946 7.87254C16.9298 7.09727 16.6193 6.34561 16.2654 5.62327C15.5315 4.19835 14.6481 2.89235 13.6368 1.73727C13.0906 1.1628 12.5022 0.648605 11.8789 0.200948L11.7366 0.090493L11.6696 0.0402832L11.6026 0.090493L11.4687 0.200948C10.0133 1.40553 8.76316 2.93237 7.78531 4.69947C7.02676 6.02096 6.39756 7.4428 5.91013 8.93692C5.55715 10.0065 5.30991 11.122 5.17346 12.2606C5.17346 12.3711 5.17346 12.4715 5.17346 12.5819C5.17346 12.6924 4.87209 12.4313 4.33633 12.2506L4.14379 12.1903C3.24536 11.9088 2.33018 11.7107 1.40638 11.5979L1.08827 12.5317C0.996184 12.7828 0.9041 13.0338 0.820387 13.2949C0.220423 15.2172 -0.025189 17.2726 0.100455 19.3197C0.169383 20.564 0.360454 21.7942 0.669704 22.9848C1.49191 26.1739 3.08575 28.9979 5.2488 31.0982C5.95633 31.8158 6.73863 32.4199 7.57603 32.8956C8.88747 33.6275 10.3152 34.0112 11.7617 34.0202H11.9626C13.5259 33.8964 15.0495 33.3762 16.4329 32.4939C16.751 32.2831 17.0691 32.032 17.0774 32.032C17.5064 31.6985 17.9174 31.3329 18.308 30.9375C19.4754 29.767 20.4763 28.3765 21.2715 26.8206C22.0816 25.2707 22.6807 23.5759 23.0462 21.7999C23.251 20.5844 23.3325 19.3436 23.2889 18.1047ZM11.7198 27.3126C11.7115 28.8024 11.5023 30.2809 11.1003 31.6906C8.72329 31.1807 6.54414 29.7735 4.88047 27.6741C3.81427 26.2307 3.00271 24.5433 2.49465 22.7136C2.03435 21.1379 1.82699 19.4718 1.88354 17.8034C1.94635 16.5498 2.15486 15.3128 2.50301 14.1283V14.068H2.61184C3.35197 14.2264 4.07792 14.4685 4.78001 14.791L4.98929 14.8914C5.89396 15.4019 6.73841 16.0535 7.50068 16.8294C8.70059 18.0156 9.6765 19.4942 10.3637 21.1673C10.5227 21.5689 10.6567 21.9907 10.7404 22.2417C11.1095 23.2239 11.3901 24.2506 11.5775 25.3043C11.6778 25.9668 11.7255 26.6393 11.7198 27.3126ZM11.6612 19.2795C11.2333 18.4163 10.7431 17.5999 10.1962 16.8395C9.87585 16.3824 9.53196 15.9497 9.16657 15.5441C8.81211 15.1297 8.43755 14.7407 8.04482 14.3793C7.69322 14.0781 7.32488 13.7969 6.95654 13.5359C7.01998 12.8327 7.12064 12.1351 7.25791 11.4473C7.61682 9.6131 8.23703 7.86703 9.09123 6.286C9.60858 5.35578 10.2001 4.48814 10.8576 3.69533C11.1338 3.36397 11.4268 3.0326 11.6947 2.6912C13.031 3.95428 14.1365 5.53332 14.9428 7.33031C15.424 8.44024 15.7976 9.61269 16.0561 10.8247C16.2466 11.701 16.3782 12.5942 16.4496 13.4957C15.4059 14.2176 14.4509 15.1097 13.6117 16.1466C12.8587 17.0928 12.2037 18.1447 11.6612 19.2795ZM19.7646 25.3746C18.2708 28.3618 15.8706 30.539 13.0676 31.4496C13.2792 30.5807 13.4222 29.6898 13.4945 28.7887C13.565 27.8702 13.565 26.9458 13.4945 26.0273C13.3829 24.5551 13.1012 23.1087 12.6574 21.7296C13.0363 20.7234 13.5111 19.7732 14.0721 18.8979C14.6213 18.0351 15.2535 17.2532 15.9557 16.5683C16.687 15.8689 17.492 15.2882 18.3499 14.8412C19.1349 14.4362 19.9588 14.1495 20.8027 13.9877C20.9488 14.5389 21.0717 15.0986 21.171 15.6646C21.3468 16.96 21.4305 17.9641 21.4389 18.0645C21.4831 20.6443 20.9015 23.184 19.7646 25.3746Z" fill="#F49879"/>
<path d="M37.5285 8.52512H40.8771C42.1854 8.4546 43.4841 8.82321 44.6274 9.58951C45.1055 9.97132 45.4936 10.4942 45.7546 11.1079C46.0156 11.7216 46.1405 12.4056 46.1175 13.0939C46.1387 13.8844 45.937 14.6603 45.5451 15.2962C45.1532 15.9321 44.5939 16.3909 43.9577 16.5984C45.7743 17.2511 46.7035 18.6066 46.7035 20.6149C46.715 21.5032 46.501 22.3747 46.0898 23.1137C45.6786 23.8526 45.0897 24.424 44.4014 24.7519C43.2111 25.2521 41.9532 25.4803 40.6929 25.4247H37.5034V8.52512H37.5285ZM43.3884 11.1861C42.4667 10.6567 41.4424 10.4381 40.425 10.5535H39.4539V15.785H40.8017C42.9196 15.785 44.1502 14.9817 44.1502 13.2245C44.1893 12.8348 44.14 12.4397 44.0074 12.0809C43.8747 11.7221 43.6638 11.413 43.3968 11.1861H43.3884ZM41.7142 17.8134H39.4539V23.4265H40.5255C41.5404 23.5054 42.558 23.331 43.514 22.9144C43.8744 22.7258 44.1777 22.4088 44.3829 22.0065C44.588 21.6041 44.6851 21.1359 44.6609 20.6651C44.6692 18.9782 43.6396 17.8234 41.7226 17.8234L41.7142 17.8134Z" fill="#3D4853"/>
<path d="M61.0519 25.7562C59.6067 25.7641 58.1921 25.2573 56.9873 24.3001C55.7824 23.3428 54.8416 21.9781 54.284 20.3788C53.7263 18.7796 53.577 17.0178 53.8548 15.3166C54.1327 13.6155 54.8253 12.0516 55.8448 10.823C56.8644 9.59441 58.165 8.75647 59.5819 8.41535C60.9988 8.07423 62.4683 8.24527 63.8041 8.9068C65.1399 9.56833 66.282 10.6906 67.0856 12.1314C67.8892 13.5721 68.3182 15.2666 68.3182 17.0001C68.3293 18.1503 68.1492 19.2916 67.7884 20.3573C67.4276 21.4231 66.8934 22.3919 66.2168 23.2071C65.5403 24.0223 64.7351 24.6676 63.8483 25.1053C62.9615 25.543 62.0108 25.7642 61.0519 25.7562ZM61.0519 10.3226C58.0466 10.3226 55.8449 13.2547 55.8449 17.0001C55.8449 20.7455 58.0466 23.6776 61.0519 23.6776C64.0572 23.6776 66.2588 20.7455 66.2588 17.0001C66.2588 13.2547 64.0572 10.3126 61.0519 10.3126V10.3226Z" fill="#3D4853"/>
<path d="M85.5882 25.4649L77.8447 12.8329V25.4649H75.9109V8.52515H77.5852L85.3538 21.1572V8.52515H87.2875V25.4649H85.6133H85.5882Z" fill="#3D4853"/>
<path d="M97.9274 18.2753V25.5151H95.9937V8.52515H103.159V10.6037H97.9358V16.1465H103.159V18.2753H97.9358H97.9274Z" fill="#3D4853"/>
<path d="M110.794 25.4649V8.52515H112.728V25.4649H110.794Z" fill="#3D4853"/>
<path d="M129.018 25.4649L124.783 18.2753H123.326V25.4348H121.392V8.52515H125.578C127.738 8.52515 130.4 9.88074 130.4 13.3852C130.408 14.5478 130.062 15.6742 129.427 16.5525C128.792 17.4308 127.911 18.0006 126.951 18.1548L131.429 25.4649H129.01H129.018ZM125.486 10.6037H123.326V16.267H125.084C126.959 16.267 128.349 15.4436 128.349 13.5057C128.349 11.7484 127.202 10.6037 125.486 10.6037Z" fill="#3D4853"/>
<path d="M138.528 25.4649V8.52515H147.008V10.6037H140.47V15.6846H147.008V17.7632H140.47V23.3763H147.008V25.4549H138.528V25.4649Z" fill="#3D4853"/>
</g>
<defs>
<clipPath id="clip0_2_9">
<rect width="147" height="34" fill="white"/>
</clipPath>
</defs>
</svg>
