<svg width="109" height="46" viewBox="0 0 109 46" fill="none" xmlns="http://www.w3.org/2000/svg">
<g clip-path="url(#clip0_2_83)">
<mask id="mask0_2_83" style="mask-type:alpha" maskUnits="userSpaceOnUse" x="0" y="0" width="103" height="46">
<path fill-rule="evenodd" clip-rule="evenodd" d="M0.00012207 0.821045H102.334V46.0001H0.00012207V0.821045Z" fill="white"/>
</mask>
<g mask="url(#mask0_2_83)">
<path fill-rule="evenodd" clip-rule="evenodd" d="M0.0398709 45.9107C0.283436 46.171 -0.0703997 45.7679 0.013212 45.9059C0.757236 45.855 1.77269 45.5633 2.45249 45.2667C2.72393 45.1481 3.41706 44.6857 3.65335 44.63C4.03021 44.5392 4.72698 44.7329 5.01659 44.6276C6.15807 44.2136 7.30804 43.1749 8.04358 42.5564C8.94877 41.7949 10.4041 40.8834 11.1481 39.8157C11.6389 39.11 11.7298 38.2626 12.3453 37.6767C13.0942 36.9637 14.6441 36.4928 15.6329 36.1091C18.1121 35.1455 19.6499 33.3903 21.9013 31.9522C21.7583 33.1094 20.8083 33.8648 21.3924 35.1007C21.8492 36.0704 22.4999 36.1224 23.3554 36.4214C23.7371 36.5546 24.3673 36.4033 24.6944 36.5764C25.0664 36.7713 25.0083 37.6126 25.4906 37.7639C26.3037 38.0205 27.9953 36.8088 28.7708 36.5969C29.9911 36.2628 30.2758 36.7398 31.3919 36.931C32.8157 37.1768 33.3089 36.4831 34.3716 35.7423C36.3674 34.349 39.3992 34.3671 41.3635 32.8358C41.4495 33.1712 41.773 33.4338 41.8203 33.8115C43.3168 33.7946 44.7419 31.3336 45.1696 30.0298C45.4568 29.1546 45.4192 28.2867 45.5901 27.4393C45.6458 27.1669 45.252 27.1718 45.4677 26.6682C45.6362 26.2796 46.6528 25.678 46.98 25.2725C48.2293 23.723 48.7734 22.0028 49.5865 20.2367C50.1112 19.0964 51.1255 18.2647 51.661 17.1632C52.0282 16.4066 52.0149 15.6694 52.2536 14.8946C53.2691 16.6269 54.3718 18.715 56.822 17.6207C59.2843 16.5216 59.5593 12.8488 61.4012 11.0694C62.7075 12.9723 66.2713 7.93168 66.9475 7.05041C67.7363 6.02147 68.3167 5.21041 68.5094 4.04104C68.5627 3.71057 68.2707 3.08836 68.3907 2.63926C68.5567 2.0122 69.3443 1.38273 69.6909 0.821045C70.8324 1.52557 71.3631 2.68768 72.776 3.33047C73.2014 3.52415 75.7424 4.98041 75.9739 4.94531C77.073 4.78068 76.5773 1.33431 78.7622 2.76152C79.654 3.34257 79.8576 5.02157 78.7319 5.37868C79.3402 6.17399 80.1387 5.76483 80.9906 5.89678C82.4883 6.12799 83.9461 6.80468 85.113 7.78157C86.5223 8.95941 85.8934 10.7994 84.7386 11.8974C84.1678 12.4385 83.4432 12.3743 82.9803 13.1418C82.6871 13.6296 82.4774 14.8293 82.3732 15.4067C81.817 18.4911 83.339 19.4414 85.788 17.375C85.9855 18.6364 86.5187 20.1653 87.9098 20.6216C89.4996 21.1422 90.8326 20.6035 92.1764 21.607C93.3203 22.4592 94.6011 23.5559 95.7123 24.5449C96.4818 25.2289 96.5521 24.6055 96.649 25.9104C96.7048 26.6718 96.4127 27.7226 96.2176 28.4695C95.2288 28.4041 94.5999 27.2456 93.9335 26.5665C93.0004 25.615 92.0928 24.9626 90.8507 24.4675C89.8183 26.5024 90.5248 26.3087 92.0225 27.5386C92.8005 28.1777 93.3276 29.0154 94.0995 29.7756C94.8168 30.4838 96.3267 31.1387 96.7581 31.9655C97.2658 32.9399 96.3691 34.9022 95.5766 33.2402C94.7756 33.8503 94.3139 34.8961 95.2506 35.4784C94.9065 35.6188 94.6472 36.0195 94.2655 36.1333C95.1598 36.7083 95.104 37.5448 95.6857 38.3486C96.0419 38.8437 97.7081 39.501 95.7172 40.0082C94.1273 40.4137 92.9652 35.1721 91.3512 37.3136C90.5066 38.4333 94.7235 41.0916 95.7438 41.3337C96.6757 41.5528 97.0683 41.0686 97.9456 41.2078C98.2595 41.2575 98.2219 42.0116 98.7466 42.0818C99.1101 42.129 99.7996 41.6146 100.101 41.4572C100.91 42.3009 101.506 43.0345 102.004 44.1325C102.433 45.0767 102.404 46.2388 102.147 45.7945L0.0398709 45.9107Z" fill="#4E5963"/>
<mask id="mask1_2_83" style="mask-type:alpha" maskUnits="userSpaceOnUse" x="71" y="25" width="9" height="8">
<path fill-rule="evenodd" clip-rule="evenodd" d="M79.2655 28.9086V25H71V28.9086V32.8171H79.2655V28.9086Z" fill="white"/>
</mask>
<g mask="url(#mask1_2_83)">
<path fill-rule="evenodd" clip-rule="evenodd" d="M75.1327 26.225C75.8454 25.3547 76.7024 25 77.4559 25C78.4552 25 79.2655 25.985 79.2655 27.2003C79.2145 29.2956 76.4155 31.7536 75.1327 32.8172C73.8499 31.7536 71.0509 29.2956 71 27.2003C71 25.985 71.8103 25 72.8095 25C73.5631 25 74.4201 25.3547 75.1327 26.225Z" fill="#FC6464"/>
</g>
</g>
<mask id="mask2_2_83" style="mask-type:alpha" maskUnits="userSpaceOnUse" x="100" y="22" width="10" height="16">
<path fill-rule="evenodd" clip-rule="evenodd" d="M100.398 22.4099H109.025V37.5302H100.398V22.4099Z" fill="white"/>
</mask>
<g mask="url(#mask2_2_83)">
<path fill-rule="evenodd" clip-rule="evenodd" d="M100.832 37.3418C100.465 35.9621 100.17 34.6551 100.64 33.1867C100.917 32.3252 101.289 32.2231 101.192 31.0231C101.118 30.1135 100.778 29.2114 100.855 28.2907C101.802 27.9757 102.648 27.4009 103.144 26.5221C103.625 25.6692 103.385 23.8095 104.132 23.1215C104.639 22.6526 107.945 22.1344 108.553 22.58C109.639 23.38 108.622 24.5738 107.803 24.9504C107.014 25.3135 105.725 24.9024 105.113 25.5646C104.569 26.1541 104.875 27.4366 104.889 28.196C104.914 29.5757 104.889 30.8409 104.452 32.1627C104.054 33.3615 103.194 34.0027 102.865 35.1904C102.557 36.3018 102.812 38.1271 100.989 37.3381" fill="#4E5963"/>
</g>
</g>
<defs>
<clipPath id="clip0_2_83">
<rect width="109" height="46" fill="white"/>
</clipPath>
</defs>
</svg>
