<svg width="27" height="32" viewBox="0 0 27 32" fill="none" xmlns="http://www.w3.org/2000/svg">
<path d="M26.1406 17.0396C26.1325 16.5467 26.098 16.0545 26.0373 15.5653C25.8876 14.141 25.5034 12.7517 24.9003 11.4543L24.6654 11.0006V10.925H24.5339H24.1204C22.9718 11.0304 21.8396 11.2715 20.7471 11.6433L20.4089 11.7661V11.4826C20.1937 10.087 19.8218 8.72053 19.3001 7.40937C19.0028 6.67971 18.6543 5.97226 18.2571 5.29242C17.4333 3.95132 16.4417 2.72214 15.3066 1.63501C14.6935 1.09432 14.033 0.61038 13.3334 0.189056L13.1737 0.0850981L13.0985 0.0378418L13.0233 0.0850981L12.873 0.189056C11.2394 1.32278 9.83618 2.75981 8.73859 4.42296C7.88716 5.66671 7.18091 7.00492 6.6338 8.41114C6.2376 9.41779 5.96008 10.4677 5.80692 11.5393C5.80692 11.6433 5.80692 11.7378 5.80692 11.8417C5.80692 11.9457 5.46865 11.7 4.86729 11.5299L4.65117 11.4732C3.64273 11.2082 2.61548 11.0218 1.57856 10.9156L1.2215 11.7945C1.11814 12.0308 1.01478 12.267 0.920819 12.5127C0.24739 14.322 -0.028297 16.2565 0.112732 18.1831C0.190101 19.3542 0.404567 20.5121 0.751684 21.6326C1.67457 24.6342 3.46358 27.2921 5.89149 29.2688C6.68565 29.9442 7.56374 30.5128 8.50368 30.9605C9.97571 31.6494 11.5783 32.0104 13.2019 32.0189H13.4274C15.1821 31.9024 16.8923 31.4128 18.445 30.5824C18.8021 30.384 19.1591 30.1477 19.1685 30.1477C19.65 29.8338 20.1113 29.4897 20.5498 29.1176C21.8601 28.0159 22.9836 26.7073 23.8761 25.2428C24.7854 23.7841 25.4579 22.189 25.8681 20.5175C26.098 19.3735 26.1895 18.2057 26.1406 17.0396ZM13.1549 25.7059C13.1455 27.1081 12.9107 28.4996 12.4595 29.8264C9.79143 29.3464 7.34544 28.022 5.47805 26.0461C4.2813 24.6876 3.37036 23.0995 2.80009 21.3775C2.28343 19.8944 2.05068 18.3263 2.11415 16.7561C2.18466 15.5762 2.41869 14.4119 2.80948 13.2971V13.2404H2.93164C3.76239 13.3895 4.57724 13.6173 5.36529 13.9209L5.6002 14.0154C6.61565 14.4958 7.5635 15.1091 8.41911 15.8394C9.76595 16.9558 10.8614 18.3474 11.6327 19.9221C11.8112 20.3001 11.9615 20.697 12.0555 20.9333C12.4698 21.8578 12.7848 22.824 12.9951 23.8158C13.1078 24.4393 13.1612 25.0722 13.1549 25.7059ZM13.0891 18.1453C12.6088 17.333 12.0586 16.5645 11.4447 15.8488C11.0851 15.4186 10.6991 15.0115 10.289 14.6297C9.89113 14.2396 9.47069 13.8736 9.02987 13.5334C8.63522 13.2499 8.22178 12.9853 7.80834 12.7396C7.87955 12.0778 7.99253 11.4212 8.14661 10.7738C8.54947 9.04755 9.24563 7.40419 10.2044 5.91617C10.7851 5.04066 11.4491 4.22406 12.187 3.47789C12.4971 3.16602 12.826 2.85414 13.1267 2.53282C14.6266 3.7216 15.8675 5.20776 16.7725 6.89904C17.3126 7.94368 17.732 9.04716 18.0222 10.1879C18.236 11.0126 18.3836 11.8533 18.4638 12.7018C17.2924 13.3812 16.2203 14.2208 15.2784 15.1967C14.4332 16.0873 13.698 17.0773 13.0891 18.1453ZM22.1848 23.8819C20.508 26.6934 17.8139 28.7425 14.6677 29.5996C14.9052 28.7817 15.0657 27.9432 15.1469 27.0951C15.226 26.2307 15.226 25.3607 15.1469 24.4962C15.0216 23.1106 14.7054 21.7493 14.2073 20.4513C14.6326 19.5043 15.1655 18.61 15.7952 17.7862C16.4116 16.9741 17.1213 16.2382 17.9094 15.5937C18.7303 14.9354 19.6339 14.3888 20.5968 13.9681C21.478 13.587 22.4027 13.3171 23.3499 13.1648C23.5139 13.6836 23.6519 14.2104 23.7634 14.7431C23.9607 15.9622 24.0546 16.9073 24.064 17.0018C24.1137 19.4299 23.4608 21.8202 22.1848 23.8819Z" fill="#F49879"/>
</svg>
